<svg id="visual" viewBox="0 0 960 540" width="960" height="540" xmlns="http://www.w3.org/2000/svg" xmlns:xlink="http://www.w3.org/1999/xlink" version="1.1"><g stroke-width="1" stroke-linejoin="bevel"><path d="M513.6 241.4L530.6 286.6L611.9 245.4Z" fill="#e9e9e9" stroke="#e3e3e3"></path><path d="M530.6 286.6L602.9 293.6L611.9 245.4Z" fill="#e9e9e9" stroke="#e3e3e3"></path><path d="M611.9 245.4L613.9 161.3L513.6 241.4Z" fill="#e3e3e3" stroke="#e3e3e3"></path><path d="M613.9 161.3L534.6 131.3L513.6 241.4Z" fill="#f9f9f9" stroke="#e3e3e3"></path><path d="M530.6 286.6L597.9 377.7L602.9 293.6Z" fill="#dddddd" stroke="#e3e3e3"></path><path d="M602.9 293.6L689.2 326.6L611.9 245.4Z" fill="#e9e9e9" stroke="#e3e3e3"></path><path d="M417.4 217.4L427.4 302.6L513.6 241.4Z" fill="#d8d8d8" stroke="#e3e3e3"></path><path d="M513.6 241.4L427.4 302.6L530.6 286.6Z" fill="#d2d2d2" stroke="#e3e3e3"></path><path d="M530.6 286.6L527.6 398.7L597.9 377.7Z" fill="#ffffff" stroke="#e3e3e3"></path><path d="M435.4 166.3L417.4 217.4L513.6 241.4Z" fill="#d2d2d2" stroke="#e3e3e3"></path><path d="M597.9 377.7L689.2 326.6L602.9 293.6Z" fill="#d2d2d2" stroke="#e3e3e3"></path><path d="M611.9 245.4L707.2 214.4L613.9 161.3Z" fill="#c7c7c7" stroke="#e3e3e3"></path><path d="M689.2 326.6L707.2 214.4L611.9 245.4Z" fill="#ffffff" stroke="#e3e3e3"></path><path d="M534.6 131.3L435.4 166.3L513.6 241.4Z" fill="#dddddd" stroke="#e3e3e3"></path><path d="M427.4 302.6L527.6 398.7L530.6 286.6Z" fill="#f4f4f4" stroke="#e3e3e3"></path><path d="M797.5 158.3L716.2 164.3L707.2 214.4Z" fill="#d8d8d8" stroke="#e3e3e3"></path><path d="M707.2 214.4L716.2 164.3L613.9 161.3Z" fill="#f4f4f4" stroke="#e3e3e3"></path><path d="M613.9 161.3L618.9 82.1L534.6 131.3Z" fill="#ffffff" stroke="#e3e3e3"></path><path d="M716.2 164.3L618.9 82.1L613.9 161.3Z" fill="#ffffff" stroke="#e3e3e3"></path><path d="M534.6 131.3L430.4 85.1L435.4 166.3Z" fill="#c7c7c7" stroke="#e3e3e3"></path><path d="M345.1 148.3L368.1 244.4L417.4 217.4Z" fill="#eeeeee" stroke="#e3e3e3"></path><path d="M417.4 217.4L368.1 244.4L427.4 302.6Z" fill="#eeeeee" stroke="#e3e3e3"></path><path d="M527.6 398.7L608.9 442.9L597.9 377.7Z" fill="#c7c7c7" stroke="#e3e3e3"></path><path d="M597.9 377.7L706.2 399.7L689.2 326.6Z" fill="#dddddd" stroke="#e3e3e3"></path><path d="M618.9 82.1L506.6 56.1L534.6 131.3Z" fill="#f4f4f4" stroke="#e3e3e3"></path><path d="M435.4 166.3L345.1 148.3L417.4 217.4Z" fill="#cdcdcd" stroke="#e3e3e3"></path><path d="M368.1 244.4L371.1 329.6L427.4 302.6Z" fill="#f4f4f4" stroke="#e3e3e3"></path><path d="M427.4 302.6L415.4 405.7L527.6 398.7Z" fill="#f4f4f4" stroke="#e3e3e3"></path><path d="M527.6 398.7L521.6 469.9L608.9 442.9Z" fill="#dddddd" stroke="#e3e3e3"></path><path d="M608.9 442.9L706.2 399.7L597.9 377.7Z" fill="#f9f9f9" stroke="#e3e3e3"></path><path d="M689.2 326.6L781.5 318.6L707.2 214.4Z" fill="#e9e9e9" stroke="#e3e3e3"></path><path d="M506.6 56.1L430.4 85.1L534.6 131.3Z" fill="#e9e9e9" stroke="#e3e3e3"></path><path d="M371.1 329.6L415.4 405.7L427.4 302.6Z" fill="#ffffff" stroke="#e3e3e3"></path><path d="M458.4 476.9L521.6 469.9L527.6 398.7Z" fill="#eeeeee" stroke="#e3e3e3"></path><path d="M706.2 399.7L781.5 318.6L689.2 326.6Z" fill="#e3e3e3" stroke="#e3e3e3"></path><path d="M781.5 318.6L799.5 244.4L707.2 214.4Z" fill="#c7c7c7" stroke="#e3e3e3"></path><path d="M716.2 164.3L708.2 59.1L618.9 82.1Z" fill="#e9e9e9" stroke="#e3e3e3"></path><path d="M618.9 82.1L597.9 0L506.6 56.1Z" fill="#f9f9f9" stroke="#e3e3e3"></path><path d="M797.5 158.3L708.2 59.1L716.2 164.3Z" fill="#d2d2d2" stroke="#e3e3e3"></path><path d="M430.4 85.1L345.1 148.3L435.4 166.3Z" fill="#d8d8d8" stroke="#e3e3e3"></path><path d="M277.8 293.6L335.1 367.7L371.1 329.6Z" fill="#cdcdcd" stroke="#e3e3e3"></path><path d="M415.4 405.7L458.4 476.9L527.6 398.7Z" fill="#eeeeee" stroke="#e3e3e3"></path><path d="M698.2 0L597.9 0L618.9 82.1Z" fill="#e3e3e3" stroke="#e3e3e3"></path><path d="M506.6 56.1L417.4 0L430.4 85.1Z" fill="#f4f4f4" stroke="#e3e3e3"></path><path d="M799.5 244.4L797.5 158.3L707.2 214.4Z" fill="#dddddd" stroke="#e3e3e3"></path><path d="M597.9 0L510.6 0L506.6 56.1Z" fill="#ffffff" stroke="#e3e3e3"></path><path d="M430.4 85.1L345.1 58.1L345.1 148.3Z" fill="#e9e9e9" stroke="#e3e3e3"></path><path d="M277.8 293.6L371.1 329.6L368.1 244.4Z" fill="#e3e3e3" stroke="#e3e3e3"></path><path d="M371.1 329.6L335.1 367.7L415.4 405.7Z" fill="#dddddd" stroke="#e3e3e3"></path><path d="M415.4 405.7L356.1 467.9L458.4 476.9Z" fill="#d8d8d8" stroke="#e3e3e3"></path><path d="M608.9 442.9L711.2 467.9L706.2 399.7Z" fill="#f9f9f9" stroke="#e3e3e3"></path><path d="M706.2 399.7L798.5 400.7L781.5 318.6Z" fill="#dddddd" stroke="#e3e3e3"></path><path d="M610.9 540L711.2 467.9L608.9 442.9Z" fill="#ffffff" stroke="#e3e3e3"></path><path d="M610.9 540L608.9 442.9L521.6 469.9Z" fill="#c7c7c7" stroke="#e3e3e3"></path><path d="M711.2 467.9L798.5 400.7L706.2 399.7Z" fill="#eeeeee" stroke="#e3e3e3"></path><path d="M860.7 296.6L848.7 210.4L799.5 244.4Z" fill="#f9f9f9" stroke="#e3e3e3"></path><path d="M785.5 0L698.2 0L708.2 59.1Z" fill="#d8d8d8" stroke="#e3e3e3"></path><path d="M708.2 59.1L698.2 0L618.9 82.1Z" fill="#f4f4f4" stroke="#e3e3e3"></path><path d="M510.6 0L417.4 0L506.6 56.1Z" fill="#e3e3e3" stroke="#e3e3e3"></path><path d="M265.8 233.4L277.8 293.6L368.1 244.4Z" fill="#e3e3e3" stroke="#e3e3e3"></path><path d="M799.5 244.4L848.7 210.4L797.5 158.3Z" fill="#dddddd" stroke="#e3e3e3"></path><path d="M797.5 158.3L793.5 55.1L708.2 59.1Z" fill="#dddddd" stroke="#e3e3e3"></path><path d="M860.7 296.6L799.5 244.4L781.5 318.6Z" fill="#d2d2d2" stroke="#e3e3e3"></path><path d="M417.4 0L345.1 58.1L430.4 85.1Z" fill="#d8d8d8" stroke="#e3e3e3"></path><path d="M345.1 148.3L265.8 233.4L368.1 244.4Z" fill="#cdcdcd" stroke="#e3e3e3"></path><path d="M445.4 540L517.6 540L458.4 476.9Z" fill="#e9e9e9" stroke="#e3e3e3"></path><path d="M458.4 476.9L517.6 540L521.6 469.9Z" fill="#e9e9e9" stroke="#e3e3e3"></path><path d="M517.6 540L610.9 540L521.6 469.9Z" fill="#e3e3e3" stroke="#e3e3e3"></path><path d="M254.8 172.3L265.8 233.4L345.1 148.3Z" fill="#e9e9e9" stroke="#e3e3e3"></path><path d="M265.8 451.9L356.1 467.9L335.1 367.7Z" fill="#dddddd" stroke="#e3e3e3"></path><path d="M335.1 367.7L356.1 467.9L415.4 405.7Z" fill="#f9f9f9" stroke="#e3e3e3"></path><path d="M855.7 54.1L793.5 55.1L797.5 158.3Z" fill="#e9e9e9" stroke="#e3e3e3"></path><path d="M883.7 378.7L860.7 296.6L781.5 318.6Z" fill="#cdcdcd" stroke="#e3e3e3"></path><path d="M356.1 467.9L445.4 540L458.4 476.9Z" fill="#c7c7c7" stroke="#e3e3e3"></path><path d="M274.8 92.1L254.8 172.3L345.1 148.3Z" fill="#dddddd" stroke="#e3e3e3"></path><path d="M610.9 540L705.2 540L711.2 467.9Z" fill="#ffffff" stroke="#e3e3e3"></path><path d="M711.2 467.9L804.5 472.9L798.5 400.7Z" fill="#f9f9f9" stroke="#e3e3e3"></path><path d="M345.1 58.1L274.8 92.1L345.1 148.3Z" fill="#e3e3e3" stroke="#e3e3e3"></path><path d="M332.1 0L274.8 92.1L345.1 58.1Z" fill="#eeeeee" stroke="#e3e3e3"></path><path d="M796.5 540L804.5 472.9L711.2 467.9Z" fill="#dddddd" stroke="#e3e3e3"></path><path d="M798.5 400.7L883.7 378.7L781.5 318.6Z" fill="#f9f9f9" stroke="#e3e3e3"></path><path d="M170.5 364.7L252.8 365.7L153.5 307.6Z" fill="#cdcdcd" stroke="#e3e3e3"></path><path d="M277.8 293.6L252.8 365.7L335.1 367.7Z" fill="#e3e3e3" stroke="#e3e3e3"></path><path d="M165.5 248.4L277.8 293.6L265.8 233.4Z" fill="#c7c7c7" stroke="#e3e3e3"></path><path d="M855.7 54.1L785.5 0L793.5 55.1Z" fill="#f4f4f4" stroke="#e3e3e3"></path><path d="M793.5 55.1L785.5 0L708.2 59.1Z" fill="#cdcdcd" stroke="#e3e3e3"></path><path d="M417.4 0L332.1 0L345.1 58.1Z" fill="#f9f9f9" stroke="#e3e3e3"></path><path d="M960 241.4L892.7 160.3L848.7 210.4Z" fill="#dddddd" stroke="#e3e3e3"></path><path d="M848.7 210.4L892.7 160.3L797.5 158.3Z" fill="#f9f9f9" stroke="#e3e3e3"></path><path d="M887.7 444.9L883.7 378.7L798.5 400.7Z" fill="#ffffff" stroke="#e3e3e3"></path><path d="M860.7 296.6L960 241.4L848.7 210.4Z" fill="#ffffff" stroke="#e3e3e3"></path><path d="M892.7 160.3L855.7 54.1L797.5 158.3Z" fill="#f4f4f4" stroke="#e3e3e3"></path><path d="M252.8 365.7L265.8 451.9L335.1 367.7Z" fill="#d8d8d8" stroke="#e3e3e3"></path><path d="M356.1 467.9L341.1 540L445.4 540Z" fill="#ffffff" stroke="#e3e3e3"></path><path d="M265.8 451.9L341.1 540L356.1 467.9Z" fill="#d8d8d8" stroke="#e3e3e3"></path><path d="M705.2 540L796.5 540L711.2 467.9Z" fill="#f4f4f4" stroke="#e3e3e3"></path><path d="M804.5 472.9L887.7 444.9L798.5 400.7Z" fill="#f9f9f9" stroke="#e3e3e3"></path><path d="M862.7 540L887.7 444.9L804.5 472.9Z" fill="#f4f4f4" stroke="#e3e3e3"></path><path d="M960 306.6L960 241.4L860.7 296.6Z" fill="#e3e3e3" stroke="#e3e3e3"></path><path d="M153.5 172.3L165.5 248.4L254.8 172.3Z" fill="#dddddd" stroke="#e3e3e3"></path><path d="M254.8 172.3L165.5 248.4L265.8 233.4Z" fill="#c7c7c7" stroke="#e3e3e3"></path><path d="M252.8 365.7L182.5 450.9L265.8 451.9Z" fill="#d2d2d2" stroke="#e3e3e3"></path><path d="M188.5 96.1L254.8 172.3L274.8 92.1Z" fill="#dddddd" stroke="#e3e3e3"></path><path d="M960 306.6L860.7 296.6L883.7 378.7Z" fill="#f9f9f9" stroke="#e3e3e3"></path><path d="M892.7 160.3L960 61.1L855.7 54.1Z" fill="#e3e3e3" stroke="#e3e3e3"></path><path d="M332.1 0L247.8 0L274.8 92.1Z" fill="#dddddd" stroke="#e3e3e3"></path><path d="M960 381.7L960 306.6L883.7 378.7Z" fill="#e9e9e9" stroke="#e3e3e3"></path><path d="M247.8 0L188.5 96.1L274.8 92.1Z" fill="#d8d8d8" stroke="#e3e3e3"></path><path d="M960 241.4L960 155.3L892.7 160.3Z" fill="#c7c7c7" stroke="#e3e3e3"></path><path d="M855.7 54.1L886.7 0L785.5 0Z" fill="#d2d2d2" stroke="#e3e3e3"></path><path d="M960 61.1L886.7 0L855.7 54.1Z" fill="#d8d8d8" stroke="#e3e3e3"></path><path d="M153.5 307.6L252.8 365.7L277.8 293.6Z" fill="#dddddd" stroke="#e3e3e3"></path><path d="M265.8 451.9L264.8 540L341.1 540Z" fill="#f9f9f9" stroke="#e3e3e3"></path><path d="M165.5 248.4L153.5 307.6L277.8 293.6Z" fill="#d2d2d2" stroke="#e3e3e3"></path><path d="M64.3 244.4L153.5 307.6L165.5 248.4Z" fill="#d2d2d2" stroke="#e3e3e3"></path><path d="M188.5 96.1L153.5 172.3L254.8 172.3Z" fill="#e3e3e3" stroke="#e3e3e3"></path><path d="M182.5 450.9L264.8 540L265.8 451.9Z" fill="#c7c7c7" stroke="#e3e3e3"></path><path d="M796.5 540L862.7 540L804.5 472.9Z" fill="#d8d8d8" stroke="#e3e3e3"></path><path d="M887.7 444.9L960 381.7L883.7 378.7Z" fill="#d2d2d2" stroke="#e3e3e3"></path><path d="M960 483.9L960 381.7L887.7 444.9Z" fill="#f4f4f4" stroke="#e3e3e3"></path><path d="M104.3 370.7L182.5 450.9L170.5 364.7Z" fill="#e9e9e9" stroke="#e3e3e3"></path><path d="M170.5 364.7L182.5 450.9L252.8 365.7Z" fill="#d8d8d8" stroke="#e3e3e3"></path><path d="M960 155.3L960 61.1L892.7 160.3Z" fill="#f9f9f9" stroke="#e3e3e3"></path><path d="M862.7 540L960 483.9L887.7 444.9Z" fill="#c7c7c7" stroke="#e3e3e3"></path><path d="M247.8 0L166.5 0L188.5 96.1Z" fill="#f4f4f4" stroke="#e3e3e3"></path><path d="M188.5 96.1L103.3 154.3L153.5 172.3Z" fill="#e3e3e3" stroke="#e3e3e3"></path><path d="M960 61.1L960 0L886.7 0Z" fill="#d8d8d8" stroke="#e3e3e3"></path><path d="M65.3 96.1L103.3 154.3L188.5 96.1Z" fill="#ffffff" stroke="#e3e3e3"></path><path d="M153.5 172.3L64.3 244.4L165.5 248.4Z" fill="#dddddd" stroke="#e3e3e3"></path><path d="M153.5 307.6L104.3 370.7L170.5 364.7Z" fill="#e3e3e3" stroke="#e3e3e3"></path><path d="M66.3 302.6L104.3 370.7L153.5 307.6Z" fill="#cdcdcd" stroke="#e3e3e3"></path><path d="M182.5 450.9L157.5 540L264.8 540Z" fill="#d8d8d8" stroke="#e3e3e3"></path><path d="M862.7 540L960 540L960 483.9Z" fill="#ffffff" stroke="#e3e3e3"></path><path d="M0 211.4L64.3 244.4L103.3 154.3Z" fill="#d2d2d2" stroke="#e3e3e3"></path><path d="M103.3 154.3L64.3 244.4L153.5 172.3Z" fill="#d2d2d2" stroke="#e3e3e3"></path><path d="M102.3 456.9L157.5 540L182.5 450.9Z" fill="#dddddd" stroke="#e3e3e3"></path><path d="M102.3 456.9L182.5 450.9L104.3 370.7Z" fill="#dddddd" stroke="#e3e3e3"></path><path d="M64.3 244.4L66.3 302.6L153.5 307.6Z" fill="#d2d2d2" stroke="#e3e3e3"></path><path d="M0 406.7L102.3 456.9L104.3 370.7Z" fill="#ffffff" stroke="#e3e3e3"></path><path d="M100.3 0L65.3 96.1L188.5 96.1Z" fill="#d8d8d8" stroke="#e3e3e3"></path><path d="M166.5 0L100.3 0L188.5 96.1Z" fill="#f4f4f4" stroke="#e3e3e3"></path><path d="M0 454.9L86.3 540L102.3 456.9Z" fill="#e9e9e9" stroke="#e3e3e3"></path><path d="M102.3 456.9L86.3 540L157.5 540Z" fill="#ffffff" stroke="#e3e3e3"></path><path d="M0 150.3L103.3 154.3L65.3 96.1Z" fill="#d2d2d2" stroke="#e3e3e3"></path><path d="M0 150.3L0 211.4L103.3 154.3Z" fill="#f9f9f9" stroke="#e3e3e3"></path><path d="M64.3 244.4L0 306.6L66.3 302.6Z" fill="#c7c7c7" stroke="#e3e3e3"></path><path d="M66.3 302.6L0 406.7L104.3 370.7Z" fill="#c7c7c7" stroke="#e3e3e3"></path><path d="M0 211.4L0 306.6L64.3 244.4Z" fill="#f9f9f9" stroke="#e3e3e3"></path><path d="M0 81.1L0 150.3L65.3 96.1Z" fill="#d2d2d2" stroke="#e3e3e3"></path><path d="M0 306.6L0 406.7L66.3 302.6Z" fill="#d2d2d2" stroke="#e3e3e3"></path><path d="M0 0L0 81.1L65.3 96.1Z" fill="#e9e9e9" stroke="#e3e3e3"></path><path d="M0 406.7L0 454.9L102.3 456.9Z" fill="#d2d2d2" stroke="#e3e3e3"></path><path d="M100.3 0L0 0L65.3 96.1Z" fill="#e3e3e3" stroke="#e3e3e3"></path><path d="M0 454.9L0 540L86.3 540Z" fill="#d8d8d8" stroke="#e3e3e3"></path></g></svg>