<?xml version="1.0" encoding="UTF-8"?>
<svg width="166mm" height="37mm" version="1.1" viewBox="0 0 166 37" xmlns="http://www.w3.org/2000/svg">
<path d="m40.364 20.891-6.8095-2.66c-0.24235-0.09457-0.74479-0.21871-1.3123 0l-6.8095 2.66c-0.63248 0.24827-1.0463 0.82754-1.0463 1.4718 0 6.5967 4.0609 11.16 7.8558 12.644 0.56747 0.21871 1.064 0.0946 1.3123 0 3.0324-1.1822 7.8558-5.2845 7.8558-12.644 0-0.6443-0.41377-1.2236-1.0463-1.4718zm-7.4657 11.308v-11.178l5.6451 2.2048c-0.33102 5.1485-3.5998 8.0036-5.6451 8.973zm-16.078-12.2c4.1791 0 7.5661-3.387 7.5661-7.5661s-3.387-7.5661-7.5661-7.5661-7.5661 3.387-7.5661 7.5661 3.387 7.5661 7.5661 7.5661zm5.6746 2.3644c0-0.14777 0.04724-0.28373 0.06497-0.42559-0.14777-0.0056-0.28965-0.04719-0.44333-0.04719h-0.98715c-1.3123 0.60292-2.7723 0.94576-4.3092 0.94576s-2.991-0.34284-4.3092-0.94576h-0.98713c-4.386 0-7.9444 3.5584-7.9444 7.9445v2.459c0 1.5664 1.2709 2.8373 2.8373 2.8373h20.807c0.40196 0 0.78618-0.08865 1.1349-0.23645-3.192-2.5358-5.8638-6.8982-5.8638-12.531z" stroke-width=".059112"/>
<text transform="scale(.26458)" fill="#000000" font-family="sans-serif" font-size="40px" style="line-height:1.25;shape-inside:url(#rect3952);white-space:pre" xml:space="preserve"/>
<g transform="matrix(.69705 0 0 .69705 26.366 -231.45)" image-rendering="auto" style="white-space:pre" aria-label="e-bunker">
<path d="m51.082 373.88v-3.2c0-6.2-3.2-10.56-10.04-10.56s-10.36 4.36-10.36 10.56v1.2c0 6.2 3.36 10.56 10.6 10.56 6.16 0 9.8-2.96 9.8-7.2v-0.16h-6.92c0 1-1.24 1.84-2.84 1.84-1.84 0-3.04-0.64-3.28-3.04zm-10.2-8.24c1.72 0 2.64 0.8 2.84 3.04h-5.68c0.2-2.24 1.12-3.04 2.84-3.04z"/>
<path d="m53.682 371.08h11.2v-6.4h-11.2z"/>
<path d="m75.802 349.88h-7.36v26l-0.4 6h6.64l0.44-2.44c1.2 1.76 3.08 3 5.96 3 5.8 0 7.8-4.16 7.8-10.36v-1.6c0-6.2-2-10.36-7.8-10.36-2.4 0-4.08 0.88-5.28 2.16zm0 18.2c0.4-0.6 1.48-1.64 3.08-1.64 2 0 2.68 1.44 2.68 4.04v1.6c0 2.6-0.68 4.04-2.68 4.04-1.6 0-2.68-1.04-3.08-1.64z"/>
<path d="m91.642 360.68v14.2c0 3.8 1.6 7.56 6.6 7.56 3.16 0 5.32-1.28 6.68-3.16l0.52 2.6h6.64l-0.4-6v-15.2h-7.36v13.8c-0.4 0.6-1.48 1.64-3.08 1.64-2 0-2.24-1.44-2.24-2.44v-13z"/>
<path d="m135.72 381.88v-14.2c0-3.8-1.6-7.56-6.6-7.56-3.16 0-5.32 1.32-6.72 3.2l-0.48-2.64h-6.64l0.4 6v15.2h7.36v-13.8c0.4-0.6 1.48-1.64 3.08-1.64 2 0 2.24 1.44 2.24 2.44v13z"/>
<path d="m139.28 381.88h7.36v-5.64l1.4-1.64 3.44 7.28h8.6l-6.96-13.16 6.96-8.04h-8.8l-4.64 5.92v-16.72h-7.36z"/>
<path d="m180.88 373.88v-3.2c0-6.2-3.2-10.56-10.04-10.56s-10.36 4.36-10.36 10.56v1.2c0 6.2 3.36 10.56 10.6 10.56 6.16 0 9.8-2.96 9.8-7.2v-0.16h-6.92c0 1-1.24 1.84-2.84 1.84-1.84 0-3.04-0.64-3.28-3.04zm-10.2-8.24c1.72 0 2.64 0.8 2.84 3.04h-5.68c0.2-2.24 1.12-3.04 2.84-3.04z"/>
<path d="m196.12 360.12c-2.4 0-4.28 1.16-5.56 2.92l-0.44-2.36h-6.64l0.4 6v15.2h7.36v-12.8c0.48-0.6 1.88-1.4 4.28-1.4h1.2v-7.52c-0.2-0.04-0.4-0.04-0.6-0.04z"/>
</g>
</svg>
