<?xml version="1.0" encoding="UTF-8"?>
<svg width="166mm" height="37mm" version="1.1" viewBox="0 0 166 37" xmlns="http://www.w3.org/2000/svg">
<path d="m40.364 20.891-6.8095-2.66c-0.24235-0.09457-0.74479-0.21871-1.3123 0l-6.8095 2.66c-0.63248 0.24827-1.0463 0.82754-1.0463 1.4718 0 6.5967 4.0609 11.16 7.8558 12.644 0.56747 0.21871 1.064 0.0946 1.3123 0 3.0324-1.1822 7.8558-5.2845 7.8558-12.644 0-0.6443-0.41377-1.2236-1.0463-1.4718zm-7.4657 11.308v-11.178l5.6451 2.2048c-0.33102 5.1485-3.5998 8.0036-5.6451 8.973zm-16.078-12.2c4.1791 0 7.5661-3.387 7.5661-7.5661 0-4.1791-3.387-7.5661-7.5661-7.5661-4.1791 0-7.5661 3.387-7.5661 7.5661 0 4.1791 3.387 7.5661 7.5661 7.5661zm5.6746 2.3644c0-0.14777 0.04724-0.28373 0.06497-0.42559-0.14777-0.0056-0.28965-0.04719-0.44333-0.04719h-0.98715c-1.3123 0.60292-2.7723 0.94576-4.3092 0.94576-1.5369 0-2.991-0.34284-4.3092-0.94576h-0.98713c-4.386 0-7.9444 3.5584-7.9444 7.9445v2.459c0 1.5664 1.2709 2.8373 2.8373 2.8373h20.807c0.40196 0 0.78618-0.08865 1.1349-0.23645-3.192-2.5358-5.8638-6.8982-5.8638-12.531z" fill="#808080" stroke-width=".059112"/>
<text transform="scale(.26458)" fill="#000000" font-family="sans-serif" font-size="40px" style="line-height:1.25;shape-inside:url(#rect3952);white-space:pre" xml:space="preserve"/>
<text transform="matrix(.69705 0 0 .69705 26.366 -231.45)" fill="#808080" font-family="sans-serif" font-size="40px" style="line-height:1.25;shape-inside:url(#rect9524);white-space:pre" xml:space="preserve"><tspan x="29.681641" y="381.88384"><tspan font-family="'Cooper Hewitt'">e-bunker</tspan></tspan></text>
</svg>
